# xmcd CD database file
#
# Track frame offsets:
#	150
#	15552
#	28852
#	41262
#	55500
#	68382
#	79505
#	95865
#	110990
#	126682
#	140615
#	155527
#
# Disc length: 2298 seconds
#
# Revision: 0
# Processed by: cddbd v1.5.2PL0 Copyright (c) Steve Scherf et al.
# Submitted via: CDex 1.70beta2
#
DISCID=a008f80c
DTITLE=Paradis, Danny - Cdn - Tay River, NB - Canadian Redneck
DYEAR=1900
DGENRE=Country
TTITLE0=My Baby's Smiles
TTITLE1=That Guitar and I
TTITLE2=Glad To Be here
TTITLE3=Stompin' Tom's Been There
TTITLE4=Northern Redneck
TTITLE5=The Mooseyard
TTITLE6=Ode To Uncle Floyd
TTITLE7=Git Yer Deer Yet
TTITLE8=Matt's Bat
TTITLE9=Cold Turkey
TTITLE10=Top Priority
TTITLE11=Davey the Lumberjack
EXTD=
EXTT0=
EXTT1=
EXTT2=
EXTT3=
EXTT4=
EXTT5=
EXTT6=
EXTT7=
EXTT8=
EXTT9=
EXTT10=
EXTT11=
PLAYORDER=
